<svg id="visual" viewBox="0 0 900 600" width="900" height="600" xmlns="http://www.w3.org/2000/svg" xmlns:xlink="http://www.w3.org/1999/xlink" version="1.1"><path d="M0 418L12.5 417C25 416 50 414 75 402.8C100 391.7 125 371.3 150 367.3C175 363.3 200 375.7 225 391.7C250 407.7 275 427.3 300 429.7C325 432 350 417 375 419.2C400 421.3 425 440.7 450 456C475 471.3 500 482.7 525 485.7C550 488.7 575 483.3 600 462.7C625 442 650 406 675 389C700 372 725 374 750 393.8C775 413.7 800 451.3 825 455.5C850 459.7 875 430.3 887.5 415.7L900 401L900 601L887.5 601C875 601 850 601 825 601C800 601 775 601 750 601C725 601 700 601 675 601C650 601 625 601 600 601C575 601 550 601 525 601C500 601 475 601 450 601C425 601 400 601 375 601C350 601 325 601 300 601C275 601 250 601 225 601C200 601 175 601 150 601C125 601 100 601 75 601C50 601 25 601 12.5 601L0 601Z" fill="#E63946" stroke-linecap="round" stroke-linejoin="miter"></path></svg>